<?xml version="1.0" encoding="UTF-8"?>
<svg id="Layer_1" data-name="Layer 1" xmlns="http://www.w3.org/2000/svg" viewBox="0 0 810.16 395.5">
  <defs>
    <style>
      .cls-1, .cls-2 {
        fill: #c3603a;
      }

      .cls-3 {
        stroke-width: 8.78px;
      }

      .cls-3, .cls-4, .cls-5 {
        stroke: #216468;
      }

      .cls-3, .cls-4, .cls-5, .cls-6, .cls-7, .cls-8 {
        stroke-miterlimit: 10;
      }

      .cls-3, .cls-4, .cls-6, .cls-7, .cls-8 {
        fill: none;
      }

      .cls-4 {
        stroke-width: 7.5px;
      }

      .cls-4, .cls-8 {
        stroke-linecap: round;
      }

      .cls-5 {
        fill: #216468;
        stroke-width: 2.14px;
      }

      .cls-9 {
        fill: #e4c28b;
      }

      .cls-9, .cls-2, .cls-10 {
        fill-rule: evenodd;
      }

      .cls-6 {
        stroke: #c3603a;
      }

      .cls-6, .cls-7 {
        stroke-width: 5.67px;
      }

      .cls-11 {
        fill: #d2814a;
      }

      .cls-7 {
        stroke: #895c40;
      }

      .cls-8 {
        stroke: #d78a28;
        stroke-width: 7.5px;
      }

      .cls-10 {
        fill: #f49229;
      }

      .cls-12 {
        fill: #c2a487;
      }
    </style>
  </defs>
  <path class="cls-12" d="m214.22,182.02c-61.54.09-148.86,1.26-209.52,0,0,0,0-.13,0-.13,60.24-1.13,148.68-.34,209.52.13h0Z"/>
  <path class="cls-12" d="m219.96,187.35c-62.89.09-152.13,1.26-214.11,0,0,0,0-.13,0-.13,61.56-1.13,151.93-.35,214.11.13h0Z"/>
  <path class="cls-12" d="m223.41,192.61c-63.6.09-153.85,1.26-216.54,0,0,0,0-.13,0-.13,62.26-1.13,153.65-.35,216.54.13h0Z"/>
  <path class="cls-12" d="m225.91,197.95c-64.09.09-155.03,1.26-218.19,0,0,0,0-.13,0-.13,62.74-1.13,154.82-.34,218.19.13h0Z"/>
  <path class="cls-12" d="m227.75,203.2c-64.41.09-155.81,1.26-219.3,0,0,0,0-.13,0-.13,63.06-1.13,155.6-.35,219.3.13h0Z"/>
  <path class="cls-12" d="m229.15,208.54c-64.65.09-156.39,1.26-220.1,0,0,0,0-.13,0-.13,63.29-1.13,156.17-.34,220.1.13h0Z"/>
  <path class="cls-12" d="m230.22,213.8c-64.82.09-156.8,1.26-220.69,0,0,0,0-.13,0-.13,63.46-1.13,156.59-.34,220.69.13h0Z"/>
  <path class="cls-12" d="m230.88,219.13c-64.92.09-157.04,1.26-221.02,0,0,0,0-.13,0-.13,63.56-1.13,156.83-.35,221.02.13h0Z"/>
  <path class="cls-12" d="m231.17,224.39c-64.95.09-157.12,1.26-221.13,0,0,0,0-.13,0-.13,63.59-1.13,156.9-.35,221.13.13h0Z"/>
  <path class="cls-12" d="m231.14,229.65c-64.94.09-157.09,1.26-221.1,0,0,0,0-.13,0-.13,63.58-1.13,156.88-.35,221.1.13h0Z"/>
  <path class="cls-12" d="m230.66,234.98c-64.84.09-156.83,1.26-220.73,0,0,0,0-.13,0-.13,63.47-1.13,156.62-.34,220.73.13h0Z"/>
  <path class="cls-12" d="m229.78,240.24c-64.67.09-156.44,1.26-220.18,0,0,0,0-.13,0-.13,63.31-1.13,156.23-.34,220.18.13h0Z"/>
  <path class="cls-12" d="m228.45,245.58c-64.41.09-155.81,1.26-219.3,0,0,0,0-.13,0-.13,63.06-1.13,155.6-.35,219.3.13h0Z"/>
  <path class="cls-12" d="m226.65,250.83c-64.09.09-155.03,1.26-218.19,0,0,0,0-.13,0-.13,62.74-1.13,154.82-.35,218.19.13h0Z"/>
  <path class="cls-12" d="m224.19,256.17c-63.62.09-153.88,1.26-216.57,0,0,0,0-.13,0-.13,62.27-1.13,153.68-.34,216.58.13h0Z"/>
  <path class="cls-12" d="m220.77,261.43c-62.95.09-152.26,1.26-214.3,0,0,0,0-.13,0-.13,61.62-1.13,152.06-.34,214.3.13h0Z"/>
  <path class="cls-12" d="m215.1,266.76c-61.71.09-149.28,1.26-210.1,0,0,0,0-.13,0-.13,60.41-1.13,149.09-.34,210.1.13h0Z"/>
  <path class="cls-6" d="m4.18,179.56h202.46c8.45,0,16.53,8.5,21.04,23.32,3.55,11.68,5.48,26.77.7,42.95-4.41,14.91-12.57,23.26-21.01,23.26H4.18s13.24-33.21,0-89.52Z"/>
  <path class="cls-11" d="m226.2,277.85c-61.54.09-148.86,1.26-209.52,0,0,0,0-.13,0-.13,60.24-1.13,148.68-.34,209.52.13h0Z"/>
  <path class="cls-11" d="m231.93,284.79c-62.89.09-152.13,1.26-214.11,0,0,0,0-.13,0-.13,61.56-1.13,151.93-.35,214.11.13h0Z"/>
  <path class="cls-11" d="m235.39,291.63c-63.6.09-153.85,1.26-216.54,0,0,0,0-.13,0-.13,62.26-1.13,153.65-.35,216.54.13h0Z"/>
  <path class="cls-11" d="m237.89,298.56c-64.09.09-155.03,1.26-218.19,0,0,0,0-.13,0-.13,62.74-1.13,154.82-.34,218.19.13h0Z"/>
  <path class="cls-11" d="m239.73,305.4c-64.41.09-155.81,1.26-219.3,0,0,0,0-.13,0-.13,63.06-1.13,155.6-.35,219.3.13h0Z"/>
  <path class="cls-11" d="m241.13,312.34c-64.65.09-156.39,1.26-220.1,0,0,0,0-.13,0-.13,63.29-1.13,156.17-.35,220.1.13h0Z"/>
  <path class="cls-11" d="m242.19,319.18c-64.82.09-156.8,1.26-220.69,0,0,0,0-.13,0-.13,63.46-1.13,156.59-.34,220.69.13h0Z"/>
  <path class="cls-11" d="m242.85,326.12c-64.92.09-157.04,1.26-221.02,0,0,0,0-.13,0-.13,63.56-1.13,156.83-.34,221.02.13h0Z"/>
  <path class="cls-11" d="m243.15,332.96c-64.95.09-157.12,1.26-221.13,0,0,0,0-.13,0-.13,63.59-1.13,156.9-.34,221.13.13h0Z"/>
  <path class="cls-11" d="m243.11,339.8c-64.94.09-157.09,1.26-221.1,0,0,0,0-.13,0-.13,63.58-1.13,156.88-.34,221.1.13h0Z"/>
  <path class="cls-11" d="m242.63,346.74c-64.84.09-156.83,1.26-220.73,0,0,0,0-.13,0-.13,63.47-1.13,156.62-.35,220.73.13h0Z"/>
  <path class="cls-11" d="m241.75,353.58c-64.67.09-156.44,1.26-220.18,0,0,0,0-.13,0-.13,63.31-1.13,156.23-.35,220.18.13h0Z"/>
  <path class="cls-11" d="m240.43,360.51c-64.41.09-155.81,1.26-219.3,0,0,0,0-.13,0-.13,63.06-1.13,155.6-.35,219.3.13h0Z"/>
  <path class="cls-11" d="m238.62,367.35c-64.09.09-155.03,1.26-218.19,0,0,0,0-.13,0-.13,62.74-1.13,154.82-.35,218.19.13h0Z"/>
  <path class="cls-11" d="m236.16,374.29c-63.62.09-153.88,1.26-216.57,0,0,0,0-.13,0-.13,62.27-1.13,153.68-.35,216.58.13h0Z"/>
  <path class="cls-11" d="m232.74,381.13c-62.95.09-152.26,1.26-214.3,0,0,0,0-.13,0-.13,61.62-1.13,152.06-.34,214.3.13h0Z"/>
  <path class="cls-11" d="m227.08,388.07c-61.71.09-149.28,1.26-210.1,0,0,0,0-.13,0-.13,60.41-1.13,149.09-.34,210.1.13h0Z"/>
  <path class="cls-7" d="m16.15,274.67h202.46c8.45,0,16.53,11.05,21.04,30.33,3.55,15.19,5.48,34.82.7,55.86-4.41,19.39-12.57,30.25-21.01,30.25H16.15s13.24-43.19,0-116.44Z"/>
  <path class="cls-1" d="m431.99,33.61c3.22,0,5.73,2.77,5.42,5.97l-10.38,107.35c-.43,4.54-3.42,8.39-7.53,9.76-10.7,3.51-21.57,4.45-31.5,4.28-9.93.17-20.8-.77-31.5-4.28-4.11-1.37-7.1-5.22-7.53-9.76l-10.38-107.35c-.31-3.2,2.21-5.97,5.42-5.97h87.97Z"/>
  <circle class="cls-3" cx="595.45" cy="285.34" r="105.77"/>
  <circle class="cls-3" cx="369.43" cy="285.34" r="105.77"/>
  <path class="cls-5" d="m241.75,156.06c-41.38,0-75.04-33.66-75.04-75.04S200.37,6.01,241.75,6.01c34.27,0,63.24,23.1,72.15,54.56h5.16C310.02,26.34,278.83,1.07,241.75,1.07c-44.17,0-79.97,35.8-79.97,79.95s35.8,79.97,79.97,79.97c36.3,0,66.97-24.21,76.72-57.39h-5.18c-9.57,30.38-38.02,52.46-71.53,52.46Z"/>
  <line class="cls-3" x1="727.04" y1="179.56" x2="727.04" y2="391.11"/>
  <path class="cls-5" d="m533.27,8.57c-10.8-5.03-21.45-7.5-32.09-7.5h-46.57v159.92h5.56v-44.28h41.01c10.65,0,21.3-2.44,32.09-7.35,21.14-9.82,31.64-26.56,31.64-50.55s-10.5-40.45-31.64-50.24Zm-2.09,96.21c-10.22,4.63-20.04,6.9-30.01,6.9h-41.01c-.18,0-.35,0-.53-.03V6.11h41.53c10.04,0,19.86,2.29,29.98,7.02,19.33,8.96,28.72,23.91,28.72,45.69s-9.39,37-28.7,45.96Z"/>
  <path class="cls-9" d="m790.92,376.9c-1.5-2.79-2.29-7.18-3.49-10.86-1.17-3.66-2.31-7.2-3.51-10.78-5.06-14.82-10.87-29.32-21.41-42.22-11.66-14.28-15.93-12.51-22.43-15.52-.49-3.25-1.4-9.32-1.1-12.4,4.81-2.66,5-.36,10.59-4.75,35.42-27.83,26.23-54.76,31.55-77.66,5.73,5.08,5.37,4.15,4.35,10.68-.47,2.99-.85,8.85-2.45,10.75,3.76-4.51,2.7-9.67,4.42-15.08,3.25,3.37,2.74,2.76,2.19,7.14-.27,2.11-.25,4.9-.98,6.83l2.55-8.39c2.01,4.26-1.6,25.77-3.02,31.55-3.06,12.61-6.74,21.7-14.87,34.12,20.87-17.43,29.44-32.83,35.55-56.46,3.64,2.98-1.35,14.03-3.14,18.6-5.84,15.04-14.66,27.57-27.57,37.58-6.25,4.88-13.27,7.26-18.17,11.21,15,9.72,19.2,21.91,25.23,35.22,4.6,10.18,13.21,26.92,11.87,38.21l-4.77-7c.98.94,3.11,6.05,3.76,8.48.92,3.6-2.64,7.4-5.16,10.76h0Z"/>
  <path class="cls-2" d="m781.12,202.71c-5.32,22.9,3.87,49.83-31.55,77.66-5.59,4.39-5.78,2.09-10.59,4.75-.3,3.08.61,9.15,1.1,12.4,6.49,3.01,10.77,1.24,22.43,15.52,10.54,12.91,16.35,27.4,21.41,42.22,1.2,3.58,2.34,7.12,3.51,10.78,1.2,3.68,1.98,8.07,3.49,10.86.21,1.48.28,2.43.44,3.8l-2.05,1.27c-5.06-2.72-6.27-13.49-7.75-18.41-2-6.56-3.78-12.31-6.63-19.02-6.32-14.91-10.74-24.92-25.46-37.51-7.74-7.02-6.3-3.36-12.69-5.14-2.26-3.09-3.27-15.62-1.97-19.93,5.03-3.68,8.63-.7,13.8-6.86,6.07-2.27,14.85-14.96,17.47-19.8,9.05-16.66,12.32-58.37,10.49-65.43,2.48-1.57.89-1.01,3.55-1.2,2.41,2.81,1.58,2.38,1.29,6.63-.16,2.49-.41,4.85-.28,7.39h0Z"/>
  <path class="cls-10" d="m748.6,275.11c5.25-6.75,10.75-23.08,12.16-31.67.64-3.78,1.87-6.56,2.44-10.96.95-7.32,2.38-9.65,2.3-20.29-.04-6.97,8.11-15.18,11.06-22.31,1.82,7.06-1.45,48.77-10.49,65.43-2.62,4.84-11.4,17.53-17.47,19.8h0Z"/>
  <path class="cls-10" d="m789.31,381.97c-2.25.35-12.72-5.85-15.66-8.3-.28-6.56-6.28-26.16-8.8-32.98-1.44-3.96-9.74-24.27-12.75-28.53l-2.62-5.12c14.72,12.58,19.14,22.59,25.46,37.51,2.85,6.71,4.63,12.45,6.63,19.02,1.48,4.92,2.69,15.69,7.75,18.41h0Z"/>
  <path class="cls-4" d="m512.04,286.85s1.81,88.5,93.5,86.29"/>
  <path class="cls-4" d="m308.78,223.24s-62.84,62.35,2,127.22"/>
  <path class="cls-4" d="m538.47,220.54s-11.68,6.55-17.56,23.64"/>
  <path class="cls-4" d="m331.51,362.23s9.58,9.36,27.62,10.2"/>
  <line class="cls-8" x1="426.28" y1="59.79" x2="421.1" y2="114.71"/>
  <path class="cls-8" d="m418.58,139.24s-.49,8.89-12.71,11.48"/>
</svg>